<?xml version="1.0" encoding="utf-8" standalone="no"?>
<!DOCTYPE svg PUBLIC "-//W3C//DTD SVG 1.1//EN"
  "http://www.w3.org/Graphics/SVG/1.1/DTD/svg11.dtd">
<svg xmlns:xlink="http://www.w3.org/1999/xlink" width="963pt" height="457.92pt" viewBox="0 0 963 457.92" xmlns="http://www.w3.org/2000/svg" version="1.1">
 <metadata>
  <rdf:RDF xmlns:dc="http://purl.org/dc/elements/1.1/" xmlns:cc="http://creativecommons.org/ns#" xmlns:rdf="http://www.w3.org/1999/02/22-rdf-syntax-ns#">
   <cc:Work>
    <dc:type rdf:resource="http://purl.org/dc/dcmitype/StillImage"/>
    <dc:date>2026-09-21T10:04:45.247718</dc:date>
    <dc:format>image/svg+xml</dc:format>
    <dc:creator>
     <cc:Agent>
      <dc:title>Matplotlib v3.11.1, https://matplotlib.org/</dc:title>
     </cc:Agent>
    </dc:creator>
   </cc:Work>
  </rdf:RDF>
 </metadata>
 <defs>
  <style type="text/css">*{stroke-linejoin: round; stroke-linecap: butt}</style>
 </defs>
 <g id="figure_1">
  <g id="patch_1">
   <path d="M 0 457.92 
L 963 457.92 
L 963 0 
L 0 0 
z
" style="fill: #ffffff"/>
  </g>
  <g id="axes_1">
   <g id="patch_2">
    <path d="M 38.5875 423 
L 233.8875 423 
Q 240.8625 423 240.8625 416.07 
L 240.8625 41.85 
Q 240.8625 34.92 233.8875 34.92 
L 38.5875 34.92 
Q 31.6125 34.92 31.6125 41.85 
L 31.6125 416.07 
Q 31.6125 423 38.5875 423 
z
" clip-path="url(#p8025fdb4cb)" style="fill: #ebf8ff; stroke: #3182ce; stroke-width: 1.5; stroke-linejoin: miter"/>
   </g>
   <g id="patch_3">
    <path d="M 37.1925 62.64 
L 235.2825 62.64 
Q 240.8625 62.64 240.8625 57.096 
L 240.8625 40.464 
Q 240.8625 34.92 235.2825 34.92 
L 37.1925 34.92 
Q 31.6125 34.92 31.6125 40.464 
L 31.6125 57.096 
Q 31.6125 62.64 37.1925 62.64 
z
" clip-path="url(#p8025fdb4cb)" style="fill: #2b6cb0"/>
   </g>
   <g id="patch_4">
    <path d="M 44.1675 138.87 
L 228.3075 138.87 
Q 232.4925 138.87 232.4925 134.712 
L 232.4925 77.193 
Q 232.4925 73.035 228.3075 73.035 
L 44.1675 73.035 
Q 39.9825 73.035 39.9825 77.193 
L 39.9825 134.712 
Q 39.9825 138.87 44.1675 138.87 
z
" clip-path="url(#p8025fdb4cb)" style="fill: #ffffff; stroke: #3182ce; stroke-linejoin: miter"/>
   </g>
   <g id="patch_5">
    <path d="M 44.1675 228.267 
L 228.3075 228.267 
Q 232.4925 228.267 232.4925 224.109 
L 232.4925 152.73 
Q 232.4925 148.572 228.3075 148.572 
L 44.1675 148.572 
Q 39.9825 148.572 39.9825 152.73 
L 39.9825 224.109 
Q 39.9825 228.267 44.1675 228.267 
z
" clip-path="url(#p8025fdb4cb)" style="fill: #ffffff; stroke: #3182ce; stroke-linejoin: miter"/>
   </g>
   <g id="patch_6">
    <path d="M 44.1675 317.664 
L 228.3075 317.664 
Q 232.4925 317.664 232.4925 313.506 
L 232.4925 242.127 
Q 232.4925 237.969 228.3075 237.969 
L 44.1675 237.969 
Q 39.9825 237.969 39.9825 242.127 
L 39.9825 313.506 
Q 39.9825 317.664 44.1675 317.664 
z
" clip-path="url(#p8025fdb4cb)" style="fill: #ffffff; stroke: #3182ce; stroke-linejoin: miter"/>
   </g>
   <g id="patch_7">
    <path d="M 44.1675 403.596 
L 228.3075 403.596 
Q 232.4925 403.596 232.4925 399.438 
L 232.4925 331.524 
Q 232.4925 327.366 228.3075 327.366 
L 44.1675 327.366 
Q 39.9825 327.366 39.9825 331.524 
L 39.9825 399.438 
Q 39.9825 403.596 44.1675 403.596 
z
" clip-path="url(#p8025fdb4cb)" style="fill: #ffffff; stroke: #3182ce; stroke-linejoin: miter"/>
   </g>
   <g id="patch_8">
    <path d="M 48.3525 396.666 
L 224.1225 396.666 
Q 226.9125 396.666 226.9125 393.894 
L 226.9125 382.806 
Q 226.9125 380.034 224.1225 380.034 
L 48.3525 380.034 
Q 45.5625 380.034 45.5625 382.806 
L 45.5625 393.894 
Q 45.5625 396.666 48.3525 396.666 
z
" clip-path="url(#p8025fdb4cb)" style="fill: #f0fff4; stroke: #38a169; stroke-width: 0.8; stroke-linejoin: miter"/>
   </g>
   <g id="patch_9">
    <path d="M 272.25 423 
L 467.55 423 
Q 474.525 423 474.525 416.07 
L 474.525 41.85 
Q 474.525 34.92 467.55 34.92 
L 272.25 34.92 
Q 265.275 34.92 265.275 41.85 
L 265.275 416.07 
Q 265.275 423 272.25 423 
z
" clip-path="url(#p8025fdb4cb)" style="fill: #faf5ff; stroke: #805ad5; stroke-width: 1.5; stroke-linejoin: miter"/>
   </g>
   <g id="patch_10">
    <path d="M 270.855 62.64 
L 468.945 62.64 
Q 474.525 62.64 474.525 57.096 
L 474.525 40.464 
Q 474.525 34.92 468.945 34.92 
L 270.855 34.92 
Q 265.275 34.92 265.275 40.464 
L 265.275 57.096 
Q 265.275 62.64 270.855 62.64 
z
" clip-path="url(#p8025fdb4cb)" style="fill: #6b46c1"/>
   </g>
   <g id="patch_11">
    <path d="M 279.225 222.03 
L 460.575 222.03 
Q 466.155 222.03 466.155 216.486 
L 466.155 78.579 
Q 466.155 73.035 460.575 73.035 
L 279.225 73.035 
Q 273.645 73.035 273.645 78.579 
L 273.645 216.486 
Q 273.645 222.03 279.225 222.03 
z
" clip-path="url(#p8025fdb4cb)" style="fill: #f0fff4; stroke: #38a169; stroke-width: 1.2; stroke-linejoin: miter"/>
   </g>
   <g id="patch_12">
    <path d="M 285.5025 212.328 
L 454.2975 212.328 
Q 457.785 212.328 457.785 208.863 
L 457.785 193.617 
Q 457.785 190.152 454.2975 190.152 
L 285.5025 190.152 
Q 282.015 190.152 282.015 193.617 
L 282.015 208.863 
Q 282.015 212.328 285.5025 212.328 
z
" clip-path="url(#p8025fdb4cb)" style="fill: #ffffff; stroke: #38a169; stroke-linejoin: miter"/>
   </g>
   <g id="patch_13">
    <path d="M 279.225 405.675 
L 460.575 405.675 
Q 466.155 405.675 466.155 400.131 
L 466.155 237.969 
Q 466.155 232.425 460.575 232.425 
L 279.225 232.425 
Q 273.645 232.425 273.645 237.969 
L 273.645 400.131 
Q 273.645 405.675 279.225 405.675 
z
" clip-path="url(#p8025fdb4cb)" style="fill: #ffffff; stroke: #805ad5; stroke-width: 1.2; stroke-linejoin: miter"/>
   </g>
   <g id="patch_14">
    <path d="M 281.3175 397.359 
L 458.4825 397.359 
Q 461.97 397.359 461.97 393.894 
L 461.97 334.296 
Q 461.97 330.831 458.4825 330.831 
L 281.3175 330.831 
Q 277.83 330.831 277.83 334.296 
L 277.83 393.894 
Q 277.83 397.359 281.3175 397.359 
z
" clip-path="url(#p8025fdb4cb)" style="fill: #faf5ff; stroke: #805ad5; stroke-linejoin: miter"/>
   </g>
   <g id="patch_15">
    <path d="M 505.9125 423 
L 701.2125 423 
Q 708.1875 423 708.1875 416.07 
L 708.1875 41.85 
Q 708.1875 34.92 701.2125 34.92 
L 505.9125 34.92 
Q 498.9375 34.92 498.9375 41.85 
L 498.9375 416.07 
Q 498.9375 423 505.9125 423 
z
" clip-path="url(#p8025fdb4cb)" style="fill: #f0fff4; stroke: #38a169; stroke-width: 1.5; stroke-linejoin: miter"/>
   </g>
   <g id="patch_16">
    <path d="M 504.5175 62.64 
L 702.6075 62.64 
Q 708.1875 62.64 708.1875 57.096 
L 708.1875 40.464 
Q 708.1875 34.92 702.6075 34.92 
L 504.5175 34.92 
Q 498.9375 34.92 498.9375 40.464 
L 498.9375 57.096 
Q 498.9375 62.64 504.5175 62.64 
z
" clip-path="url(#p8025fdb4cb)" style="fill: #276749"/>
   </g>
   <g id="patch_17">
    <path d="M 511.4925 129.168 
L 695.6325 129.168 
Q 699.8175 129.168 699.8175 125.01 
L 699.8175 76.5 
Q 699.8175 72.342 695.6325 72.342 
L 511.4925 72.342 
Q 507.3075 72.342 507.3075 76.5 
L 507.3075 125.01 
Q 507.3075 129.168 511.4925 129.168 
z
" clip-path="url(#p8025fdb4cb)" style="fill: #ffffff; stroke: #38a169; stroke-linejoin: miter"/>
   </g>
   <g id="patch_18">
    <path d="M 511.4925 413.298 
L 695.6325 413.298 
Q 699.8175 413.298 699.8175 409.14 
L 699.8175 143.028 
Q 699.8175 138.87 695.6325 138.87 
L 511.4925 138.87 
Q 507.3075 138.87 507.3075 143.028 
L 507.3075 409.14 
Q 507.3075 413.298 511.4925 413.298 
z
" clip-path="url(#p8025fdb4cb)" style="fill: #ffffff; stroke: #38a169; stroke-linejoin: miter"/>
   </g>
   <g id="patch_19">
    <path d="M 514.2825 204.012 
L 692.8425 204.012 
Q 695.6325 204.012 695.6325 201.24 
L 695.6325 163.818 
Q 695.6325 161.046 692.8425 161.046 
L 514.2825 161.046 
Q 511.4925 161.046 511.4925 163.818 
L 511.4925 201.24 
Q 511.4925 204.012 514.2825 204.012 
z
" clip-path="url(#p8025fdb4cb)" style="fill: #f7fafc; stroke: #3182ce; stroke-width: 0.8; stroke-linejoin: miter"/>
   </g>
   <g id="patch_20">
    <path d="M 514.2825 262.224 
L 692.8425 262.224 
Q 695.6325 262.224 695.6325 259.452 
L 695.6325 212.328 
Q 695.6325 209.556 692.8425 209.556 
L 514.2825 209.556 
Q 511.4925 209.556 511.4925 212.328 
L 511.4925 259.452 
Q 511.4925 262.224 514.2825 262.224 
z
" clip-path="url(#p8025fdb4cb)" style="fill: #f7fafc; stroke: #805ad5; stroke-width: 0.8; stroke-linejoin: miter"/>
   </g>
   <g id="patch_21">
    <path d="M 514.2825 307.962 
L 692.8425 307.962 
Q 695.6325 307.962 695.6325 305.19 
L 695.6325 270.54 
Q 695.6325 267.768 692.8425 267.768 
L 514.2825 267.768 
Q 511.4925 267.768 511.4925 270.54 
L 511.4925 305.19 
Q 511.4925 307.962 514.2825 307.962 
z
" clip-path="url(#p8025fdb4cb)" style="fill: #f7fafc; stroke: #38a169; stroke-width: 0.8; stroke-linejoin: miter"/>
   </g>
   <g id="patch_22">
    <path d="M 514.2825 353.7 
L 692.8425 353.7 
Q 695.6325 353.7 695.6325 350.928 
L 695.6325 316.278 
Q 695.6325 313.506 692.8425 313.506 
L 514.2825 313.506 
Q 511.4925 313.506 511.4925 316.278 
L 511.4925 350.928 
Q 511.4925 353.7 514.2825 353.7 
z
" clip-path="url(#p8025fdb4cb)" style="fill: #f7fafc; stroke: #cbd5e0; stroke-width: 0.8; stroke-linejoin: miter"/>
   </g>
   <g id="patch_23">
    <path d="M 514.2825 399.438 
L 692.8425 399.438 
Q 695.6325 399.438 695.6325 396.666 
L 695.6325 362.016 
Q 695.6325 359.244 692.8425 359.244 
L 514.2825 359.244 
Q 511.4925 359.244 511.4925 362.016 
L 511.4925 396.666 
Q 511.4925 399.438 514.2825 399.438 
z
" clip-path="url(#p8025fdb4cb)" style="fill: #fff5f5; stroke: #e53e3e; stroke-width: 0.8; stroke-linejoin: miter"/>
   </g>
   <g id="patch_24">
    <path d="M 739.575 423 
L 934.875 423 
Q 941.85 423 941.85 416.07 
L 941.85 41.85 
Q 941.85 34.92 934.875 34.92 
L 739.575 34.92 
Q 732.6 34.92 732.6 41.85 
L 732.6 416.07 
Q 732.6 423 739.575 423 
z
" clip-path="url(#p8025fdb4cb)" style="fill: #f7fafc; stroke: #cbd5e0; stroke-width: 1.5; stroke-linejoin: miter"/>
   </g>
   <g id="patch_25">
    <path d="M 738.18 62.64 
L 936.27 62.64 
Q 941.85 62.64 941.85 57.096 
L 941.85 40.464 
Q 941.85 34.92 936.27 34.92 
L 738.18 34.92 
Q 732.6 34.92 732.6 40.464 
L 732.6 57.096 
Q 732.6 62.64 738.18 62.64 
z
" clip-path="url(#p8025fdb4cb)" style="fill: #1a202c"/>
   </g>
   <g id="patch_26">
    <path d="M 745.155 232.425 
L 929.295 232.425 
Q 933.48 232.425 933.48 228.267 
L 933.48 77.193 
Q 933.48 73.035 929.295 73.035 
L 745.155 73.035 
Q 740.97 73.035 740.97 77.193 
L 740.97 228.267 
Q 740.97 232.425 745.155 232.425 
z
" clip-path="url(#p8025fdb4cb)" style="fill: #ffffff; stroke: #cbd5e0; stroke-linejoin: miter"/>
   </g>
   <g id="patch_27">
    <path d="M 745.155 408.447 
L 929.295 408.447 
Q 933.48 408.447 933.48 404.289 
L 933.48 246.285 
Q 933.48 242.127 929.295 242.127 
L 745.155 242.127 
Q 740.97 242.127 740.97 246.285 
L 740.97 404.289 
Q 740.97 408.447 745.155 408.447 
z
" clip-path="url(#p8025fdb4cb)" style="fill: #ebf8ff; stroke: #3182ce; stroke-linejoin: miter"/>
   </g>
   <g id="patch_28">
    <path d="M 748.6425 400.131 
L 925.8075 400.131 
Q 929.295 400.131 929.295 396.666 
L 929.295 367.56 
Q 929.295 364.095 925.8075 364.095 
L 748.6425 364.095 
Q 745.155 364.095 745.155 367.56 
L 745.155 396.666 
Q 745.155 400.131 748.6425 400.131 
z
" clip-path="url(#p8025fdb4cb)" style="fill: #ffffff; stroke: #3182ce; stroke-width: 1.2; stroke-linejoin: miter"/>
   </g>
   <g id="text_1">
    <text style="font-weight: 700; font-size: 11.5px; font-family: 'DejaVu Sans', 'Arial', 'Helvetica', sans-serif; text-anchor: middle; fill: #ffffff" x="136.2375" y="51.767305" transform="rotate(-0 136.2375 51.767305)">1. ALGORITHMIC AUDITING</text>
   </g>
   <g id="text_2">
    <!-- Benchmark Data ($N=57,056$) -->
    <g style="fill: #2b6cb0" transform="translate(53.2605 89.103)">
     <text>
      <tspan x="0" y="-0.265625" style="font-weight: 700; font-size: 10.2px; font-family: 'DejaVu Sans'; fill: #2b6cb0">B</tspan>
      <tspan x="7.764984" y="-0.265625" style="font-weight: 700; font-size: 10.2px; font-family: 'DejaVu Sans'; fill: #2b6cb0">e</tspan>
      <tspan x="14.674377" y="-0.265625" style="font-weight: 700; font-size: 10.2px; font-family: 'DejaVu Sans'; fill: #2b6cb0">n</tspan>
      <tspan x="21.927002" y="-0.265625" style="font-weight: 700; font-size: 10.2px; font-family: 'DejaVu Sans'; fill: #2b6cb0">c</tspan>
      <tspan x="27.965881" y="-0.265625" style="font-weight: 700; font-size: 10.2px; font-family: 'DejaVu Sans'; fill: #2b6cb0">h</tspan>
      <tspan x="35.218506" y="-0.265625" style="font-weight: 700; font-size: 10.2px; font-family: 'DejaVu Sans'; fill: #2b6cb0">m</tspan>
      <tspan x="45.833801" y="-0.265625" style="font-weight: 700; font-size: 10.2px; font-family: 'DejaVu Sans'; fill: #2b6cb0">a</tspan>
      <tspan x="52.708374" y="-0.265625" style="font-weight: 700; font-size: 10.2px; font-family: 'DejaVu Sans'; fill: #2b6cb0">r</tspan>
      <tspan x="57.732483" y="-0.265625" style="font-weight: 700; font-size: 10.2px; font-family: 'DejaVu Sans'; fill: #2b6cb0">k</tspan>
      <tspan x="64.507568" y="-0.265625" style="font-weight: 700; font-size: 10.2px; font-family: 'DejaVu Sans'; fill: #2b6cb0"> </tspan>
      <tspan x="68.054291" y="-0.265625" style="font-weight: 700; font-size: 10.2px; font-family: 'DejaVu Sans'; fill: #2b6cb0">D</tspan>
      <tspan x="76.510712" y="-0.265625" style="font-weight: 700; font-size: 10.2px; font-family: 'DejaVu Sans'; fill: #2b6cb0">a</tspan>
      <tspan x="83.385284" y="-0.265625" style="font-weight: 700; font-size: 10.2px; font-family: 'DejaVu Sans'; fill: #2b6cb0">t</tspan>
      <tspan x="88.255188" y="-0.265625" style="font-weight: 700; font-size: 10.2px; font-family: 'DejaVu Sans'; fill: #2b6cb0">a</tspan>
      <tspan x="95.129761" y="-0.265625" style="font-weight: 700; font-size: 10.2px; font-family: 'DejaVu Sans'; fill: #2b6cb0"> </tspan>
      <tspan x="98.676483" y="-0.265625" style="font-weight: 700; font-size: 10.2px; font-family: 'DejaVu Sans'; fill: #2b6cb0">(</tspan>
      <tspan x="161.089844" y="-0.265625" style="font-weight: 700; font-size: 10.2px; font-family: 'DejaVu Sans'; fill: #2b6cb0">)</tspan>
      <tspan x="103.332489" y="-0.265625" style="font-style: oblique; font-size: 10.2px; font-family: 'DejaVu Sans'; fill: #2b6cb0">N</tspan>
      <tspan x="112.937988" y="-0.265625" style="font-size: 10.2px; font-family: 'DejaVu Sans'; fill: #2b6cb0">=</tspan>
      <tspan x="123.458771" y="-0.265625" style="font-size: 10.2px; font-family: 'DejaVu Sans'; fill: #2b6cb0">5</tspan>
      <tspan x="129.940369" y="-0.265625" style="font-size: 10.2px; font-family: 'DejaVu Sans'; fill: #2b6cb0">7</tspan>
      <tspan x="136.421967" y="-0.265625" style="font-size: 10.2px; font-family: 'DejaVu Sans'; fill: #2b6cb0">,</tspan>
      <tspan x="141.64505" y="-0.265625" style="font-size: 10.2px; font-family: 'DejaVu Sans'; fill: #2b6cb0">0</tspan>
      <tspan x="148.126648" y="-0.265625" style="font-size: 10.2px; font-family: 'DejaVu Sans'; fill: #2b6cb0">5</tspan>
      <tspan x="154.608246" y="-0.265625" style="font-size: 10.2px; font-family: 'DejaVu Sans'; fill: #2b6cb0">6</tspan>
     </text>
    </g>
   </g>
   <g id="text_3">
    <text style="font-size: 8.6px; font-family: 'DejaVu Sans', 'Arial', 'Helvetica', sans-serif; fill: #1a202c" transform="translate(46.9575 103.783453)">• Adult Census Income: 48,842 instances</text>
    <text style="font-size: 8.6px; font-family: 'DejaVu Sans', 'Arial', 'Helvetica', sans-serif; fill: #1a202c" transform="translate(46.9575 115.393453)">• COMPAS Recidivism: 7,214 instances</text>
    <text style="font-size: 8.6px; font-family: 'DejaVu Sans', 'Arial', 'Helvetica', sans-serif; fill: #1a202c" transform="translate(46.9575 127.003453)">• German Credit: 1,000 instances</text>
   </g>
   <g id="text_4">
    <text style="font-weight: 700; font-size: 10.2px; font-family: 'DejaVu Sans', 'Arial', 'Helvetica', sans-serif; text-anchor: middle; fill: #2b6cb0" x="136.2375" y="164.638406" transform="rotate(-0 136.2375 164.638406)">Model &amp; Mitigation Matrix</text>
   </g>
   <g id="text_5">
    <text style="font-size: 8.6px; font-family: 'DejaVu Sans', 'Arial', 'Helvetica', sans-serif; fill: #1a202c" transform="translate(46.9575 178.926062)">• Logistic Regression &amp; Random Forest</text>
    <text style="font-size: 8.6px; font-family: 'DejaVu Sans', 'Arial', 'Helvetica', sans-serif; fill: #1a202c" transform="translate(46.9575 190.536062)">• Correlation Remover &amp; Threshold Opt.</text>
    <text style="font-size: 8.6px; font-family: 'DejaVu Sans', 'Arial', 'Helvetica', sans-serif; fill: #1a202c" transform="translate(46.9575 202.146062)">• Seeds: 42, 123, 456 (3 splits)</text>
    <text style="font-size: 8.6px; font-family: 'DejaVu Sans', 'Arial', 'Helvetica', sans-serif; fill: #1a202c" transform="translate(46.9575 214.589187)">• 36 full-factorial audit conditions</text>
   </g>
   <g id="text_6">
    <text style="font-weight: 700; font-size: 10.2px; font-family: 'DejaVu Sans', 'Arial', 'Helvetica', sans-serif; text-anchor: middle; fill: #2b6cb0" x="136.2375" y="254.035406" transform="rotate(-0 136.2375 254.035406)">Structured Audit Evidence</text>
   </g>
   <g id="text_7">
    <text style="font-size: 8.6px; font-family: 'DejaVu Sans', 'Arial', 'Helvetica', sans-serif; fill: #1a202c" transform="translate(46.9575 268.323062)">• Fairness: DPD, EOD, Disparate Impact</text>
    <text style="font-size: 8.6px; font-family: 'DejaVu Sans', 'Arial', 'Helvetica', sans-serif; fill: #1a202c" transform="translate(46.9575 279.933062)">• Performance: Accuracy, Selection Rate</text>
    <text style="font-size: 8.6px; font-family: 'DejaVu Sans', 'Arial', 'Helvetica', sans-serif; fill: #1a202c" transform="translate(46.9575 291.543062)">• Attribution: Top-5 SHAP values</text>
    <!-- • Metric states: Baseline ($S_0$), Mitigated ($S_1$), $\Delta$ -->
    <g style="fill: #1a202c" transform="translate(46.9575 303.145)">
     <text>
      <tspan x="0" y="-0.46875" style="font-size: 8.6px; font-family: 'DejaVu Sans Display'; fill: #1a202c">•</tspan>
      <tspan x="5.06897" y="-0.46875" style="font-size: 8.6px; font-family: 'DejaVu Sans'; fill: #1a202c"> </tspan>
      <tspan x="7.800674" y="-0.46875" style="font-size: 8.6px; font-family: 'DejaVu Sans'; fill: #1a202c">M</tspan>
      <tspan x="15.215302" y="-0.46875" style="font-size: 8.6px; font-family: 'DejaVu Sans'; fill: #1a202c">e</tspan>
      <tspan x="20.502472" y="-0.46875" style="font-size: 8.6px; font-family: 'DejaVu Sans'; fill: #1a202c">t</tspan>
      <tspan x="23.871994" y="-0.46875" style="font-size: 8.6px; font-family: 'DejaVu Sans'; fill: #1a202c">r</tspan>
      <tspan x="27.405167" y="-0.46875" style="font-size: 8.6px; font-family: 'DejaVu Sans'; fill: #1a202c">i</tspan>
      <tspan x="29.792786" y="-0.46875" style="font-size: 8.6px; font-family: 'DejaVu Sans'; fill: #1a202c">c</tspan>
      <tspan x="34.51767" y="-0.46875" style="font-size: 8.6px; font-family: 'DejaVu Sans'; fill: #1a202c"> </tspan>
      <tspan x="37.249374" y="-0.46875" style="font-size: 8.6px; font-family: 'DejaVu Sans'; fill: #1a202c">s</tspan>
      <tspan x="41.726685" y="-0.46875" style="font-size: 8.6px; font-family: 'DejaVu Sans'; fill: #1a202c">t</tspan>
      <tspan x="45.096207" y="-0.46875" style="font-size: 8.6px; font-family: 'DejaVu Sans'; fill: #1a202c">a</tspan>
      <tspan x="50.362396" y="-0.46875" style="font-size: 8.6px; font-family: 'DejaVu Sans'; fill: #1a202c">t</tspan>
      <tspan x="53.731918" y="-0.46875" style="font-size: 8.6px; font-family: 'DejaVu Sans'; fill: #1a202c">e</tspan>
      <tspan x="59.019089" y="-0.46875" style="font-size: 8.6px; font-family: 'DejaVu Sans'; fill: #1a202c">s</tspan>
      <tspan x="63.496399" y="-0.46875" style="font-size: 8.6px; font-family: 'DejaVu Sans'; fill: #1a202c">:</tspan>
      <tspan x="66.391754" y="-0.46875" style="font-size: 8.6px; font-family: 'DejaVu Sans'; fill: #1a202c"> </tspan>
      <tspan x="69.123459" y="-0.46875" style="font-size: 8.6px; font-family: 'DejaVu Sans'; fill: #1a202c">B</tspan>
      <tspan x="75.019073" y="-0.46875" style="font-size: 8.6px; font-family: 'DejaVu Sans'; fill: #1a202c">a</tspan>
      <tspan x="80.285263" y="-0.46875" style="font-size: 8.6px; font-family: 'DejaVu Sans'; fill: #1a202c">s</tspan>
      <tspan x="84.762573" y="-0.46875" style="font-size: 8.6px; font-family: 'DejaVu Sans'; fill: #1a202c">e</tspan>
      <tspan x="90.049744" y="-0.46875" style="font-size: 8.6px; font-family: 'DejaVu Sans'; fill: #1a202c">l</tspan>
      <tspan x="92.437363" y="-0.46875" style="font-size: 8.6px; font-family: 'DejaVu Sans'; fill: #1a202c">i</tspan>
      <tspan x="94.824982" y="-0.46875" style="font-size: 8.6px; font-family: 'DejaVu Sans'; fill: #1a202c">n</tspan>
      <tspan x="100.271606" y="-0.46875" style="font-size: 8.6px; font-family: 'DejaVu Sans'; fill: #1a202c">e</tspan>
      <tspan x="105.558777" y="-0.46875" style="font-size: 8.6px; font-family: 'DejaVu Sans'; fill: #1a202c"> </tspan>
      <tspan x="108.290482" y="-0.46875" style="font-size: 8.6px; font-family: 'DejaVu Sans'; fill: #1a202c">(</tspan>
      <tspan x="121.160716" y="-0.46875" style="font-size: 8.6px; font-family: 'DejaVu Sans'; fill: #1a202c">)</tspan>
      <tspan x="124.513454" y="-0.46875" style="font-size: 8.6px; font-family: 'DejaVu Sans'; fill: #1a202c">,</tspan>
      <tspan x="127.245158" y="-0.46875" style="font-size: 8.6px; font-family: 'DejaVu Sans'; fill: #1a202c"> </tspan>
      <tspan x="129.976863" y="-0.46875" style="font-size: 8.6px; font-family: 'DejaVu Sans'; fill: #1a202c">M</tspan>
      <tspan x="137.39149" y="-0.46875" style="font-size: 8.6px; font-family: 'DejaVu Sans'; fill: #1a202c">i</tspan>
      <tspan x="139.779109" y="-0.46875" style="font-size: 8.6px; font-family: 'DejaVu Sans'; fill: #1a202c">t</tspan>
      <tspan x="143.148631" y="-0.46875" style="font-size: 8.6px; font-family: 'DejaVu Sans'; fill: #1a202c">i</tspan>
      <tspan x="145.53625" y="-0.46875" style="font-size: 8.6px; font-family: 'DejaVu Sans'; fill: #1a202c">g</tspan>
      <tspan x="150.991267" y="-0.46875" style="font-size: 8.6px; font-family: 'DejaVu Sans'; fill: #1a202c">a</tspan>
      <tspan x="156.257457" y="-0.46875" style="font-size: 8.6px; font-family: 'DejaVu Sans'; fill: #1a202c">t</tspan>
      <tspan x="159.626979" y="-0.46875" style="font-size: 8.6px; font-family: 'DejaVu Sans'; fill: #1a202c">e</tspan>
      <tspan x="164.914149" y="-0.46875" style="font-size: 8.6px; font-family: 'DejaVu Sans'; fill: #1a202c">d</tspan>
      <tspan x="170.369167" y="-0.46875" style="font-size: 8.6px; font-family: 'DejaVu Sans'; fill: #1a202c"> </tspan>
      <tspan x="173.100871" y="-0.46875" style="font-size: 8.6px; font-family: 'DejaVu Sans'; fill: #1a202c">(</tspan>
      <tspan x="185.971106" y="-0.46875" style="font-size: 8.6px; font-family: 'DejaVu Sans'; fill: #1a202c">)</tspan>
      <tspan x="189.323843" y="-0.46875" style="font-size: 8.6px; font-family: 'DejaVu Sans'; fill: #1a202c">,</tspan>
      <tspan x="192.055548" y="-0.46875" style="font-size: 8.6px; font-family: 'DejaVu Sans'; fill: #1a202c"> </tspan>
      <tspan x="194.787253" y="-0.46875" style="font-size: 8.6px; font-family: 'DejaVu Sans'; fill: #1a202c">Δ</tspan>
      <tspan x="111.643219" y="-0.46875" style="font-style: oblique; font-size: 8.6px; font-family: 'DejaVu Sans'; fill: #1a202c">S</tspan>
      <tspan x="176.453609" y="-0.46875" style="font-style: oblique; font-size: 8.6px; font-family: 'DejaVu Sans'; fill: #1a202c">S</tspan>
      <tspan x="117.098236" y="0.821246" style="font-size: 6.02px; font-family: 'DejaVu Sans'; fill: #1a202c">0</tspan>
      <tspan x="181.908626" y="0.821246" style="font-size: 6.02px; font-family: 'DejaVu Sans'; fill: #1a202c">1</tspan>
     </text>
    </g>
   </g>
   <g id="text_8">
    <text style="font-weight: 700; font-size: 10.2px; font-family: 'DejaVu Sans', 'Arial', 'Helvetica', sans-serif; text-anchor: middle; fill: #2b6cb0" x="136.2375" y="343.432406" transform="rotate(-0 136.2375 343.432406)">Evidence Hash Verification</text>
   </g>
   <g id="text_9">
    <text style="font-size: 8.4px; font-family: 'DejaVu Sans', 'Arial', 'Helvetica', sans-serif; fill: #1a202c" transform="translate(46.9575 357.319875)">• SHA-256 payload parity verified</text>
    <text style="font-size: 8.4px; font-family: 'DejaVu Sans', 'Arial', 'Helvetica', sans-serif; fill: #1a202c" transform="translate(46.9575 368.239875)">• SHA-256 evidence parity verifies</text>
    <text style="font-size: 8.4px; font-family: 'DejaVu Sans', 'Arial', 'Helvetica', sans-serif; fill: #1a202c" transform="translate(46.9575 379.159875)">  identical inputs for controlled comparison</text>
   </g>
   <g id="text_10">
    <text style="font-weight: 700; font-size: 8px; font-family: 'DejaVu Sans Mono', 'Bitstream Vera Sans Mono', 'Computer Modern Typewriter', 'Andale Mono', 'Nimbus Mono L', 'Courier New', 'Courier', 'Fixed', 'Terminal', monospace; text-anchor: middle; fill: #276749" x="136.2375" y="390.428125" transform="rotate(-0 136.2375 390.428125)">SHA-256(Input) == SHA-256(Exp)</text>
   </g>
   <g id="patch_29">
    <path d="M 242.862108 228.96 
Q 253.068565 228.96 261.712972 228.96 
" clip-path="url(#p8025fdb4cb)" style="fill: none; stroke: #718096; stroke-width: 2; stroke-linecap: round"/>
    <path d="M 255.712972 223.96 
L 261.712972 228.96 
L 255.712972 233.96 
" clip-path="url(#p8025fdb4cb)" style="fill: none; stroke: #718096; stroke-width: 2; stroke-linecap: round"/>
   </g>
   <g id="text_11">
    <text style="font-weight: 700; font-size: 11.5px; font-family: 'DejaVu Sans', 'Arial', 'Helvetica', sans-serif; text-anchor: middle; fill: #ffffff" x="369.9" y="51.767305" transform="rotate(-0 369.9 51.767305)">2. DUAL EXPLANATIONS</text>
   </g>
   <g id="text_12">
    <text style="font-weight: 700; font-size: 10.5px; font-family: 'DejaVu Sans', 'Arial', 'Helvetica', sans-serif; text-anchor: middle; fill: #276749" x="369.9" y="90.715359" transform="rotate(-0 369.9 90.715359)">Deterministic Reference Control</text>
   </g>
   <g id="text_13">
    <text style="font-style: italic; font-size: 8.6px; font-family: 'DejaVu Sans', 'Arial', 'Helvetica', sans-serif; text-anchor: middle; fill: #2d3748" x="369.9" y="101.745656" transform="rotate(-0 369.9 101.745656)">TemplateExplainer (Rule-Based)</text>
   </g>
   <g id="text_14">
    <text style="font-size: 8.6px; font-family: 'DejaVu Sans', 'Arial', 'Helvetica', sans-serif; fill: #1a202c" transform="translate(280.62 120.021062)">• Standardized factual templates</text>
    <text style="font-size: 8.6px; font-family: 'DejaVu Sans', 'Arial', 'Helvetica', sans-serif; fill: #1a202c" transform="translate(280.62 131.631062)">• Direct evidence extraction logic</text>
    <text style="font-size: 8.6px; font-family: 'DejaVu Sans', 'Arial', 'Helvetica', sans-serif; fill: #1a202c" transform="translate(280.62 143.241062)">• Zero stochastic sampling or drift</text>
    <text style="font-size: 8.6px; font-family: 'DejaVu Sans', 'Arial', 'Helvetica', sans-serif; fill: #1a202c" transform="translate(280.62 154.851062)">• Evidence-grounded baseline anchor</text>
   </g>
   <g id="text_15">
    <text style="font-weight: 700; font-size: 9.2px; font-family: 'DejaVu Sans', 'Arial', 'Helvetica', sans-serif; text-anchor: middle; fill: #276749" x="369.9" y="203.630203" transform="rotate(-0 369.9 203.630203)">Faithfulness: 100.00% ± 0.00%</text>
   </g>
   <g id="text_16">
    <text style="font-weight: 700; font-size: 10.5px; font-family: 'DejaVu Sans', 'Arial', 'Helvetica', sans-serif; text-anchor: middle; fill: #6b46c1" x="369.9" y="250.105359" transform="rotate(-0 369.9 250.105359)">Generative Language Model</text>
   </g>
   <g id="text_17">
    <text style="font-style: italic; font-size: 8.6px; font-family: 'DejaVu Sans', 'Arial', 'Helvetica', sans-serif; text-anchor: middle; fill: #2d3748" x="369.9" y="261.135656" transform="rotate(-0 369.9 261.135656)">Gemini 2.5 Flash (API)</text>
   </g>
   <g id="text_18">
    <text style="font-size: 8.6px; font-family: 'DejaVu Sans', 'Arial', 'Helvetica', sans-serif; fill: #1a202c" transform="translate(280.62 277.905469)">• Prompt template: combined_audit_v1</text>
    <text style="font-size: 8.6px; font-family: 'DejaVu Sans', 'Arial', 'Helvetica', sans-serif; fill: #1a202c" transform="translate(280.62 289.515469)">• T = 0.2, Top_p = 0.95, Max_tokens = 1500</text>
    <text style="font-size: 8.6px; font-family: 'DejaVu Sans', 'Arial', 'Helvetica', sans-serif; fill: #1a202c" transform="translate(280.62 301.245062)">• Multi-metric synthesis narrative</text>
   </g>
   <g id="text_19">
    <text style="font-weight: 700; font-size: 8.8px; font-family: 'DejaVu Sans', 'Arial', 'Helvetica', sans-serif; text-anchor: middle; fill: #6b46c1" x="369.9" y="347.219625" transform="rotate(-0 369.9 347.219625)">Empirical Performance (N=36):</text>
   </g>
   <g id="text_20">
    <text style="font-size: 8.2px; font-family: 'DejaVu Sans', 'Arial', 'Helvetica', sans-serif; fill: #1a202c" transform="translate(283.41 361.394062)">• Numerical: 88.13% ± 10.82%</text>
    <text style="font-size: 8.2px; font-family: 'DejaVu Sans', 'Arial', 'Helvetica', sans-serif; fill: #1a202c" transform="translate(283.41 372.054062)">• Directional: 94.18% ± 21.02%</text>
    <text style="font-size: 8.2px; font-family: 'DejaVu Sans', 'Arial', 'Helvetica', sans-serif; fill: #1a202c" transform="translate(283.41 381.919687)">• Unsupported: 8.51% ± 8.72%</text>
    <text style="font-size: 8.2px; font-family: 'DejaVu Sans', 'Arial', 'Helvetica', sans-serif; fill: #1a202c" transform="translate(283.41 392.579687)">• Total parsed claims: 1,306</text>
   </g>
   <g id="patch_30">
    <path d="M 476.524608 228.96 
Q 486.731065 228.96 495.375472 228.96 
" clip-path="url(#p8025fdb4cb)" style="fill: none; stroke: #718096; stroke-width: 2; stroke-linecap: round"/>
    <path d="M 489.375472 223.96 
L 495.375472 228.96 
L 489.375472 233.96 
" clip-path="url(#p8025fdb4cb)" style="fill: none; stroke: #718096; stroke-width: 2; stroke-linecap: round"/>
   </g>
   <g id="text_21">
    <text style="font-weight: 700; font-size: 11.5px; font-family: 'DejaVu Sans', 'Arial', 'Helvetica', sans-serif; text-anchor: middle; fill: #ffffff" x="603.5625" y="51.767305" transform="rotate(-0 603.5625 51.767305)">3. CLAIM-LEVEL EVALUATION</text>
   </g>
   <g id="text_22">
    <text style="font-weight: 700; font-size: 10.2px; font-family: 'DejaVu Sans', 'Arial', 'Helvetica', sans-serif; text-anchor: middle; fill: #276749" x="603.5625" y="88.408406" transform="rotate(-0 603.5625 88.408406)">Boundary Isolation &amp; Extraction</text>
   </g>
   <g id="text_23">
    <text style="font-size: 8.6px; font-family: 'DejaVu Sans', 'Arial', 'Helvetica', sans-serif; fill: #1a202c" transform="translate(514.2825 101.310062)">• Deterministic regex clause segmentation</text>
    <text style="font-size: 8.6px; font-family: 'DejaVu Sans', 'Arial', 'Helvetica', sans-serif; fill: #1a202c" transform="translate(514.2825 112.920062)">• Splits compound narrative sentences</text>
    <text style="font-size: 8.6px; font-family: 'DejaVu Sans', 'Arial', 'Helvetica', sans-serif; fill: #1a202c" transform="translate(514.2825 125.363187)">• Preserves atomic assertion context</text>
   </g>
   <g id="text_24">
    <text style="font-weight: 700; font-size: 10.5px; font-family: 'DejaVu Sans', 'Arial', 'Helvetica', sans-serif; text-anchor: middle; fill: #276749" x="603.5625" y="155.164359" transform="rotate(-0 603.5625 155.164359)">Deterministic Decision Engine</text>
   </g>
   <g id="text_25">
    <text style="font-weight: 700; font-size: 8.8px; font-family: 'DejaVu Sans', 'Arial', 'Helvetica', sans-serif; text-anchor: start; fill: #2b6cb0" x="515.6775" y="173.276625" transform="rotate(-0 515.6775 173.276625)">1. Numerical Verification</text>
   </g>
   <g id="text_26">
    <text style="font-size: 7.8px; font-family: 'DejaVu Sans Mono', 'Bitstream Vera Sans Mono', 'Computer Modern Typewriter', 'Andale Mono', 'Nimbus Mono L', 'Courier New', 'Courier', 'Fixed', 'Terminal', monospace; text-anchor: start; fill: #1a202c" x="515.6775" y="183.646219" transform="rotate(-0 515.6775 183.646219)">|v_claim - v_truth| ≤ 0.015 or rel ≤ 5%</text>
   </g>
   <g id="text_27">
    <text style="font-weight: 700; font-size: 8px; font-family: 'DejaVu Sans', 'Arial', 'Helvetica', sans-serif; text-anchor: start; fill: #c53030" x="515.6775" y="195.53775" transform="rotate(-0 515.6775 195.53775)">109/1,125 unsupported (9.69%)</text>
   </g>
   <g id="text_28">
    <text style="font-weight: 700; font-size: 8.8px; font-family: 'DejaVu Sans', 'Arial', 'Helvetica', sans-serif; text-anchor: start; fill: #6b46c1" x="515.6775" y="221.786625" transform="rotate(-0 515.6775 221.786625)">2. Directional Consistency</text>
   </g>
   <g id="text_29">
    <text style="font-size: 7.8px; font-family: 'DejaVu Sans Mono', 'Bitstream Vera Sans Mono', 'Computer Modern Typewriter', 'Andale Mono', 'Nimbus Mono L', 'Courier New', 'Courier', 'Fixed', 'Terminal', monospace; text-anchor: start; fill: #1a202c" x="515.6775" y="232.114781" transform="rotate(-0 515.6775 232.114781)">sign(asserted_dir) == sign(S₁ - S₀)</text>
   </g>
   <g id="text_30">
    <text style="font-weight: 700; font-size: 8px; font-family: 'DejaVu Sans', 'Arial', 'Helvetica', sans-serif; text-anchor: start; fill: #c53030" x="515.6775" y="244.04775" transform="rotate(-0 515.6775 244.04775)">4/118 unsupported ratio-transition</text>
   </g>
   <g id="text_31">
    <text style="font-weight: 700; font-size: 8px; font-family: 'DejaVu Sans', 'Arial', 'Helvetica', sans-serif; text-anchor: start; fill: #c53030" x="515.6775" y="255.13575" transform="rotate(-0 515.6775 255.13575)">semantic mismatches (3.39%)</text>
   </g>
   <g id="text_32">
    <text style="font-weight: 700; font-size: 8.6px; font-family: 'DejaVu Sans', 'Arial', 'Helvetica', sans-serif; text-anchor: start; fill: #276749" x="515.6775" y="279.153656" transform="rotate(-0 515.6775 279.153656)">3. Fairness &amp; Performance</text>
   </g>
   <g id="text_33">
    <text style="font-size: 7.8px; font-family: 'DejaVu Sans', 'Arial', 'Helvetica', sans-serif; text-anchor: start; fill: #1a202c" x="515.6775" y="288.940781" transform="rotate(-0 515.6775 288.940781)">Disparity narrative &amp; accuracy assertions</text>
   </g>
   <g id="text_34">
    <text style="font-weight: 700; font-size: 7.8px; font-family: 'DejaVu Sans', 'Arial', 'Helvetica', sans-serif; text-anchor: start; fill: #276749" x="515.6775" y="300.721781" transform="rotate(-0 515.6775 300.721781)">48/48 supported (100.0%)</text>
   </g>
   <g id="text_35">
    <text style="font-weight: 700; font-size: 8.6px; font-family: 'DejaVu Sans', 'Arial', 'Helvetica', sans-serif; text-anchor: start; fill: #4a5568" x="515.6775" y="324.891656" transform="rotate(-0 515.6775 324.891656)">4. Subjective Magnitude</text>
   </g>
   <g id="text_36">
    <text style="font-size: 7.8px; font-family: 'DejaVu Sans', 'Arial', 'Helvetica', sans-serif; text-anchor: start; fill: #1a202c" x="515.6775" y="334.678781" transform="rotate(-0 515.6775 334.678781)">Unanchored modifiers ('substantially')</text>
   </g>
   <g id="text_37">
    <text style="font-weight: 700; font-size: 7.8px; font-family: 'DejaVu Sans', 'Arial', 'Helvetica', sans-serif; text-anchor: start; fill: #4a5568" x="515.6775" y="346.459781" transform="rotate(-0 515.6775 346.459781)">15/15 routed to UNDETERMINABLE</text>
   </g>
   <g id="text_38">
    <text style="font-weight: 700; font-size: 8.6px; font-family: 'DejaVu Sans', 'Arial', 'Helvetica', sans-serif; text-anchor: start; fill: #c53030" x="515.6775" y="370.629656" transform="rotate(-0 515.6775 370.629656)">5. Unsupported Claims Rate</text>
   </g>
   <g id="text_39">
    <text style="font-size: 7.8px; font-family: 'DejaVu Sans', 'Arial', 'Helvetica', sans-serif; text-anchor: start; fill: #1a202c" x="515.6775" y="380.416781" transform="rotate(-0 515.6775 380.416781)">Condition Mean: 8.51% ± 8.72%</text>
   </g>
   <g id="text_40">
    <text style="font-weight: 700; font-size: 7.8px; font-family: 'DejaVu Sans', 'Arial', 'Helvetica', sans-serif; text-anchor: start; fill: #c53030" x="515.6775" y="392.197781" transform="rotate(-0 515.6775 392.197781)">Pooled: 113/1,306 unsupported (8.65%)</text>
   </g>
   <g id="patch_31">
    <path d="M 710.187108 228.96 
Q 720.393565 228.96 729.037972 228.96 
" clip-path="url(#p8025fdb4cb)" style="fill: none; stroke: #718096; stroke-width: 2; stroke-linecap: round"/>
    <path d="M 723.037972 223.96 
L 729.037972 228.96 
L 723.037972 233.96 
" clip-path="url(#p8025fdb4cb)" style="fill: none; stroke: #718096; stroke-width: 2; stroke-linecap: round"/>
   </g>
   <g id="text_41">
    <text style="font-weight: 700; font-size: 11.5px; font-family: 'DejaVu Sans', 'Arial', 'Helvetica', sans-serif; text-anchor: middle; fill: #ffffff" x="837.225" y="51.767305" transform="rotate(-0 837.225 51.767305)">4. BENCHMARK GOVERNANCE</text>
   </g>
   <g id="text_42">
    <text style="font-weight: 700; font-size: 10.5px; font-family: 'DejaVu Sans', 'Arial', 'Helvetica', sans-serif; text-anchor: middle; fill: #1a202c" x="837.225" y="89.329359" transform="rotate(-0 837.225 89.329359)">Primary Empirical Findings</text>
   </g>
   <g id="text_43">
    <text style="font-weight: 700; font-size: 8.6px; font-family: 'DejaVu Sans', 'Arial', 'Helvetica', sans-serif; text-anchor: start; fill: #1a202c" x="746.55" y="103.131656" transform="rotate(-0 746.55 103.131656)">RQ1 (Numerical Faithfulness):</text>
   </g>
   <g id="text_44">
    <text style="font-size: 8px; font-family: 'DejaVu Sans', 'Arial', 'Helvetica', sans-serif; fill: #c53030" transform="translate(746.55 114.8925)">• -11.87 pp degradation (p = 1.34e-7)</text>
    <text style="font-size: 8px; font-family: 'DejaVu Sans', 'Arial', 'Helvetica', sans-serif; fill: #c53030" transform="translate(746.55 124.8925)">• Cohen's d = -1.097 (Large effect)</text>
   </g>
   <g id="text_45">
    <text style="font-weight: 700; font-size: 8.6px; font-family: 'DejaVu Sans', 'Arial', 'Helvetica', sans-serif; text-anchor: start; fill: #1a202c" x="746.55" y="146.097656" transform="rotate(-0 746.55 146.097656)">RQ2 (Directional Faithfulness):</text>
   </g>
   <g id="text_46">
    <text style="font-size: 8px; font-family: 'DejaVu Sans', 'Arial', 'Helvetica', sans-serif; fill: #276749" transform="translate(746.55 157.8585)">• 94.18% vs. 100% control (N=23 pairs)</text>
    <text style="font-size: 8px; font-family: 'DejaVu Sans', 'Arial', 'Helvetica', sans-serif; fill: #276749" transform="translate(746.55 167.8585)">• Diff: -5.82 pp (p = 0.1979, n.s.)</text>
   </g>
   <g id="text_47">
    <text style="font-weight: 700; font-size: 8.6px; font-family: 'DejaVu Sans', 'Arial', 'Helvetica', sans-serif; text-anchor: start; fill: #1a202c" x="746.55" y="189.063656" transform="rotate(-0 746.55 189.063656)">RQ3 (Unsupported Claims):</text>
   </g>
   <g id="text_48">
    <text style="font-size: 8px; font-family: 'DejaVu Sans', 'Arial', 'Helvetica', sans-serif; fill: #c53030" transform="translate(746.55 200.8245)">• 8.51% condition mean (p = 1.20e-6)</text>
    <text style="font-size: 8px; font-family: 'DejaVu Sans', 'Arial', 'Helvetica', sans-serif; fill: #c53030" transform="translate(746.55 210.8245)">• 8.65% pooled claim-level rate</text>
   </g>
   <g id="text_49">
    <text style="font-weight: 700; font-size: 10.2px; font-family: 'DejaVu Sans', 'Arial', 'Helvetica', sans-serif; text-anchor: middle; fill: #2b6cb0" x="837.225" y="258.193406" transform="rotate(-0 837.225 258.193406)">Secondary LLM Sensitivity Study</text>
   </g>
   <g id="text_50">
    <text style="font-style: italic; font-size: 8.6px; font-family: 'DejaVu Sans', 'Arial', 'Helvetica', sans-serif; text-anchor: middle; fill: #2d3748" x="837.225" y="269.451656" transform="rotate(-0 837.225 269.451656)">Llama 3 8B Adjudicator (N=100)</text>
   </g>
   <g id="text_51">
    <text style="font-size: 8.2px; font-family: 'DejaVu Sans', 'Arial', 'Helvetica', sans-serif; fill: #1a202c" transform="translate(746.55 286.755062)">• 77.0% overall raw concordance</text>
    <text style="font-size: 8.2px; font-family: 'DejaVu Sans', 'Arial', 'Helvetica', sans-serif; fill: #1a202c" transform="translate(746.55 297.406734)">• 100% on Dir, Fair, &amp; Perf claims</text>
    <text style="font-size: 8.2px; font-family: 'DejaVu Sans', 'Arial', 'Helvetica', sans-serif; fill: #1a202c" transform="translate(746.55 308.100687)">• 80% numerical claim agreement</text>
    <text style="font-size: 8.2px; font-family: 'DejaVu Sans', 'Arial', 'Helvetica', sans-serif; fill: #1a202c" transform="translate(746.55 319.170687)">• 0% magnitude agreement (undet)</text>
    <text style="font-size: 8.2px; font-family: 'DejaVu Sans', 'Arial', 'Helvetica', sans-serif; fill: #1a202c" transform="translate(746.55 330.144594)">• Ternary κ = 0.063 | Binary κ = 0.045</text>
    <text style="font-size: 8.2px; font-family: 'DejaVu Sans', 'Arial', 'Helvetica', sans-serif; fill: #1a202c" transform="translate(746.55 341.310687)">• Kappa Paradox: Pe = 75.5%</text>
   </g>
   <g id="text_52">
    <text style="font-weight: 700; font-size: 8.4px; font-family: 'DejaVu Sans', 'Arial', 'Helvetica', sans-serif; text-anchor: middle; fill: #1a202c" x="837.225" y="377.407687" transform="rotate(-0 837.225 377.407687)">Methodological Scoping:</text>
   </g>
   <g id="text_53">
    <text style="font-size: 8px; font-family: 'DejaVu Sans', 'Arial', 'Helvetica', sans-serif; text-anchor: middle; fill: #4a5568" x="837.225" y="388.19175" transform="rotate(-0 837.225 388.19175)">Sensitivity Analysis Only</text>
   </g>
   <g id="text_54">
    <text style="font-weight: 700; font-size: 8.2px; font-family: 'DejaVu Sans', 'Arial', 'Helvetica', sans-serif; text-anchor: middle; fill: #c53030" x="837.225" y="398.045719" transform="rotate(-0 837.225 398.045719)">Explicitly NOT Human Validation</text>
   </g>
  </g>
 </g>
 <defs>
  <clipPath id="p8025fdb4cb">
   <rect x="7.2" y="7.2" width="948.6" height="443.52"/>
  </clipPath>
 </defs>
</svg>
